<?xml version="1.0" standalone="no"?><!DOCTYPE svg PUBLIC "-//W3C//DTD SVG 1.1//EN" "http://www.w3.org/Graphics/SVG/1.1/DTD/svg11.dtd"><svg t="1686288847532" class="icon" viewBox="0 0 1024 1024" version="1.1" xmlns="http://www.w3.org/2000/svg" p-id="2110" xmlns:xlink="http://www.w3.org/1999/xlink" width="200" height="200"><path d="M306.4 773.3h188v16.3c0 13.8 11.2 25 25 25s25-11.2 25-25v-16.3h180.5c68.9 0 125-56.1 125-125V295.4c0-68.9-56.1-125-125-125H549.6c-10.7 0-19.9 6.8-23.4 16.3-2.1-0.6-4.4-0.9-6.7-0.9-2 0-3.9 0.2-5.8 0.7-3.6-9.4-12.7-16-23.3-16h-184c-68.9 0-125 56.1-125 125v352.9c0 68.8 56.1 124.9 125 124.9z m418.5-552.9c41.4 0 75 33.6 75 75v352.9c0 41.4-33.6 75-75 75H544.4V219.9c1.7 0.4 3.4 0.5 5.2 0.5h175.3z m-493.5 75c0-41.4 33.6-75 75-75h183.9c1.4 0 2.8-0.1 4.1-0.3v503.2h-188c-41.4 0-75-33.6-75-75V295.4z" fill="#666666" p-id="2111"></path><path d="M901.5 314.3c-11 0-20 9-20 20v384c0 44.1-35.9 80-80 80H615.3c-5.6 0-11 2.4-14.8 6.5l-25.9 28.4c-2 2.2-4.9 3.5-7.9 3.5H459c-2.9 0-5.6-1.1-7.6-3.1L425.8 808c-3.8-3.8-8.8-5.9-14.1-5.9H224.8c-44.1 0-80-35.9-80-80V343.9c0-11-9-20-20-20s-20 9-20 20v378.3c0 66.2 53.8 120 120 120h178.5l19.7 19.7c9.6 9.6 22.3 14.9 35.9 14.9h107.7c14.2 0 27.9-6 37.5-16.5l20-21.9h177.4c66.2 0 120-53.8 120-120v-384c0-11.1-9-20.1-20-20.1z" fill="#666666" p-id="2112"></path><path d="M297.5 341.4h123.6c11 0 20-9 20-20s-9-20-20-20H297.5c-11 0-20 9-20 20s8.9 20 20 20zM297.5 408.6h123.6c11 0 20-9 20-20s-9-20-20-20H297.5c-11 0-20 9-20 20s8.9 20 20 20zM297.5 506.5h123.6c11 0 20-9 20-20s-9-20-20-20H297.5c-11 0-20 9-20 20s8.9 20 20 20z" fill="#666666" p-id="2113"></path></svg>