<?xml version="1.0" standalone="no"?><!DOCTYPE svg PUBLIC "-//W3C//DTD SVG 1.1//EN" "http://www.w3.org/Graphics/SVG/1.1/DTD/svg11.dtd"><svg t="1686289062343" class="icon" viewBox="0 0 1024 1024" version="1.1" xmlns="http://www.w3.org/2000/svg" p-id="5681" xmlns:xlink="http://www.w3.org/1999/xlink" width="200" height="200"><path d="M542.72 914.773333c-215.04 0-392.533333-177.493333-392.533333-392.533333S324.266667 129.706667 542.72 129.706667 935.253333 307.2 935.253333 522.24s-177.493333 392.533333-392.533333 392.533333z m0-750.933333c-197.973333 0-358.4 160.426667-358.4 358.4s160.426667 358.4 358.4 358.4 358.4-160.426667 358.4-358.4S740.693333 163.84 542.72 163.84z" fill="#2D3545" p-id="5682"></path><path d="M474.453333 897.706667c-6.826667 0-13.653333-3.413333-17.066666-10.24-40.96-98.986667-44.373333-262.826667-17.066667-320.853334 6.826667-13.653333 17.066667-23.893333 27.306667-27.306666 92.16-27.306667 228.693333-163.84 232.106666-167.253334 3.413333-3.413333 10.24-6.826667 17.066667-3.413333s146.773333 51.2 215.04 160.426667c3.413333 6.826667 3.413333 17.066667-6.826667 23.893333-6.826667 3.413333-17.066667 3.413333-23.893333-6.826667-51.2-81.92-153.6-129.706667-187.733333-143.36-30.72 30.72-150.186667 139.946667-238.933334 167.253334-20.48 13.653333-37.546667 191.146667 10.24 300.373333 3.413333 10.24 0 17.066667-10.24 23.893333 3.413333 3.413333 0 3.413333 0 3.413334z" fill="#2D3545" p-id="5683"></path><path d="M440.32 709.973333c-10.24 0-17.066667-6.826667-17.066667-17.066666s6.826667-17.066667 17.066667-17.066667c71.68 0 351.573333-163.84 358.4-221.866667 0-10.24 10.24-17.066667 17.066667-13.653333 10.24 0 17.066667 10.24 17.066666 17.066667-10.24 88.746667-317.44 252.586667-392.533333 252.586666zM457.386667 812.373333c-10.24 0-17.066667-6.826667-17.066667-17.066666s6.826667-17.066667 17.066667-17.066667c51.2 0 341.333333-44.373333 426.666666-245.76 3.413333-10.24 13.653333-13.653333 23.893334-10.24 10.24 3.413333 13.653333 13.653333 10.24 23.893333-95.573333 218.453333-409.6 266.24-460.8 266.24zM713.386667 402.773333c-10.24 0-17.066667-6.826667-17.066667-17.066666 0-58.026667-71.68-174.08-98.986667-211.626667-6.826667-6.826667-3.413333-17.066667 3.413334-23.893333 6.826667-6.826667 17.066667-3.413333 23.893333 3.413333 3.413333 6.826667 105.813333 150.186667 105.813333 232.106667 0 10.24-10.24 17.066667-17.066666 17.066666z" fill="#2D3545" p-id="5684"></path><path d="M884.053333 385.706667c-3.413333 0-6.826667 0-6.826666-3.413334-37.546667-17.066667-139.946667-64.853333-180.906667-64.853333-10.24 0-17.066667-6.826667-17.066667-17.066667s6.826667-17.066667 17.066667-17.066666c54.613333 0 180.906667 61.44 194.56 71.68 6.826667 3.413333 10.24 13.653333 6.826667 23.893333-3.413333 3.413333-6.826667 6.826667-13.653334 6.826667zM474.453333 573.44h-6.826666c-98.986667-34.133333-245.76-201.386667-249.173334-252.586667 0-10.24 6.826667-17.066667 17.066667-17.066666s17.066667 6.826667 17.066667 17.066666c3.413333 30.72 136.533333 191.146667 228.693333 225.28 10.24 3.413333 13.653333 13.653333 10.24 20.48-3.413333 3.413333-10.24 6.826667-17.066667 6.826667z" fill="#2D3545" p-id="5685"></path><path d="M184.32 641.706667s-3.413333 0 0 0c-10.24 0-17.066667-10.24-17.066667-17.066667 3.413333-58.026667 37.546667-153.6 88.746667-228.693333 6.826667-6.826667 17.066667-10.24 23.893333-3.413334 6.826667 6.826667 10.24 17.066667 3.413334 23.893334-47.786667 68.266667-78.506667 160.426667-81.92 215.04-3.413333 3.413333-10.24 10.24-17.066667 10.24zM303.786667 812.373333s-3.413333 0 0 0c-10.24 0-17.066667-10.24-17.066667-17.066666 3.413333-64.853333 17.066667-283.306667 54.613333-317.44 6.826667-6.826667 17.066667-6.826667 23.893334 0s6.826667 17.066667 0 23.893333c-17.066667 17.066667-37.546667 167.253333-47.786667 296.96 3.413333 6.826667-6.826667 13.653333-13.653333 13.653333zM645.12 453.973333c-10.24 0-17.066667-6.826667-17.066667-17.066666 0-30.72-129.706667-225.28-167.253333-262.826667-6.826667-6.826667-6.826667-17.066667 0-23.893333s17.066667-6.826667 23.893333 0c30.72 30.72 174.08 235.52 174.08 283.306666 3.413333 13.653333-3.413333 20.48-13.653333 20.48zM559.786667 505.173333c-3.413333 0-10.24-3.413333-13.653334-6.826666-3.413333-3.413333-204.8-221.866667-238.933333-256-6.826667-3.413333-6.826667-13.653333 0-20.48s17.066667-6.826667 23.893333 0c34.133333 34.133333 232.106667 245.76 238.933334 256 6.826667 6.826667 6.826667 17.066667 0 23.893333-3.413333 3.413333-6.826667 3.413333-10.24 3.413333z" fill="#2D3545" p-id="5686"></path></svg>